<?xml version="1.0" encoding="UTF-8" standalone="no"?>
<svg
   xmlns:dc="http://purl.org/dc/elements/1.1/"
   xmlns:cc="http://creativecommons.org/ns#"
   xmlns:rdf="http://www.w3.org/1999/02/22-rdf-syntax-ns#"
   xmlns:svg="http://www.w3.org/2000/svg"
   xmlns="http://www.w3.org/2000/svg"
   xmlns:sodipodi="http://sodipodi.sourceforge.net/DTD/sodipodi-0.dtd"
   xmlns:inkscape="http://www.inkscape.org/namespaces/inkscape"
   sodipodi:docname="lines2.svg"
   inkscape:version="1.0 (4035a4f, 2020-05-01)"
   id="svg9453"
   version="1.1"
   viewBox="0 0 91.12619 32.697716"
   height="32.697716mm"
   width="91.12619mm">
  <defs
     id="defs9447">
    <clipPath
       clipPathUnits="userSpaceOnUse"
       id="clipPath8329">
      <path
         d="m 4065.36,2876.84 c -262.5,0 -461.83,2.08 -468.12,8.32 l -1.6,3.78 0.21,-1.24 c -7.22,16.45 -228.8,235.14 -414.37,415.71 -2.88,2.8 -5.76,5.61 -8.63,8.39 -25,24.32 -49.27,47.86 -72.18,70.04 l 6.95,7.19 c 19.49,-18.87 42.35,-41.02 67.36,-65.32 2.86,-2.78 5.74,-5.58 8.66,-8.41 158.88,-154.42 396.24,-387.18 420.06,-422.43 16.27,-4.43 187.75,-6.05 423.41,-6.05 365.19,0 884.61,3.87 1220.18,7.11 l 0.1,-9.99 c -231.62,-2.24 -780.63,-7.1 -1182.03,-7.1"
         id="path8327" />
    </clipPath>
    <radialGradient
       fx="0"
       fy="0"
       cx="0"
       cy="0"
       r="1"
       gradientUnits="userSpaceOnUse"
       gradientTransform="matrix(3510.36,0,0,-3510.36,3750,2500)"
       spreadMethod="pad"
       id="radialGradient8337">
      <stop
         style="stop-opacity:1;stop-color:#74a1d8"
         offset="0"
         id="stop8331" />
      <stop
         style="stop-opacity:1;stop-color:#74a1d8"
         offset="0.0384615"
         id="stop8333" />
      <stop
         style="stop-opacity:1;stop-color:#6e92c1"
         offset="1"
         id="stop8335" />
    </radialGradient>
    <clipPath
       clipPathUnits="userSpaceOnUse"
       id="clipPath7807">
      <path
         d="m 3211.51,2539.22 v 90.86 l 78.22,-45.43 -78.22,-45.43"
         id="path7805" />
    </clipPath>
    <radialGradient
       fx="0"
       fy="0"
       cx="0"
       cy="0"
       r="1"
       gradientUnits="userSpaceOnUse"
       gradientTransform="matrix(3510.36,0,0,-3510.36,3750,2500)"
       spreadMethod="pad"
       id="radialGradient7815">
      <stop
         style="stop-opacity:1;stop-color:#74a1d8"
         offset="0"
         id="stop7809" />
      <stop
         style="stop-opacity:1;stop-color:#74a1d8"
         offset="0.0384615"
         id="stop7811" />
      <stop
         style="stop-opacity:1;stop-color:#6e92c1"
         offset="1"
         id="stop7813" />
    </radialGradient>
    <clipPath
       clipPathUnits="userSpaceOnUse"
       id="clipPath7825">
      <path
         d="m 3310.58,2539.22 v 90.86 l 78.22,-45.43 -78.22,-45.43"
         id="path7823" />
    </clipPath>
    <radialGradient
       fx="0"
       fy="0"
       cx="0"
       cy="0"
       r="1"
       gradientUnits="userSpaceOnUse"
       gradientTransform="matrix(3510.36,0,0,-3510.36,3750,2500)"
       spreadMethod="pad"
       id="radialGradient7833">
      <stop
         style="stop-opacity:1;stop-color:#74a1d8"
         offset="0"
         id="stop7827" />
      <stop
         style="stop-opacity:1;stop-color:#74a1d8"
         offset="0.0384615"
         id="stop7829" />
      <stop
         style="stop-opacity:1;stop-color:#6e92c1"
         offset="1"
         id="stop7831" />
    </radialGradient>
    <clipPath
       clipPathUnits="userSpaceOnUse"
       id="clipPath7843">
      <path
         d="m 3409.66,2539.22 v 90.86 l 78.22,-45.43 -78.22,-45.43"
         id="path7841" />
    </clipPath>
    <radialGradient
       fx="0"
       fy="0"
       cx="0"
       cy="0"
       r="1"
       gradientUnits="userSpaceOnUse"
       gradientTransform="matrix(3510.36,0,0,-3510.36,3750,2500)"
       spreadMethod="pad"
       id="radialGradient7851">
      <stop
         style="stop-opacity:1;stop-color:#74a1d8"
         offset="0"
         id="stop7845" />
      <stop
         style="stop-opacity:1;stop-color:#74a1d8"
         offset="0.0384615"
         id="stop7847" />
      <stop
         style="stop-opacity:1;stop-color:#6e92c1"
         offset="1"
         id="stop7849" />
    </radialGradient>
    <clipPath
       clipPathUnits="userSpaceOnUse"
       id="clipPath7861">
      <path
         d="m 3508.74,2539.22 v 90.86 l 78.21,-45.43 -78.21,-45.43"
         id="path7859" />
    </clipPath>
    <radialGradient
       fx="0"
       fy="0"
       cx="0"
       cy="0"
       r="1"
       gradientUnits="userSpaceOnUse"
       gradientTransform="matrix(3510.36,0,0,-3510.36,3750,2500)"
       spreadMethod="pad"
       id="radialGradient7869">
      <stop
         style="stop-opacity:1;stop-color:#74a1d8"
         offset="0"
         id="stop7863" />
      <stop
         style="stop-opacity:1;stop-color:#74a1d8"
         offset="0.0384615"
         id="stop7865" />
      <stop
         style="stop-opacity:1;stop-color:#6e92c1"
         offset="1"
         id="stop7867" />
    </radialGradient>
    <clipPath
       clipPathUnits="userSpaceOnUse"
       id="clipPath7879">
      <path
         d="m 3607.81,2539.22 v 90.86 l 78.22,-45.43 -78.22,-45.43"
         id="path7877" />
    </clipPath>
    <radialGradient
       fx="0"
       fy="0"
       cx="0"
       cy="0"
       r="1"
       gradientUnits="userSpaceOnUse"
       gradientTransform="matrix(3510.36,0,0,-3510.36,3750,2500)"
       spreadMethod="pad"
       id="radialGradient7887">
      <stop
         style="stop-opacity:1;stop-color:#74a1d8"
         offset="0"
         id="stop7881" />
      <stop
         style="stop-opacity:1;stop-color:#74a1d8"
         offset="0.0384615"
         id="stop7883" />
      <stop
         style="stop-opacity:1;stop-color:#6e92c1"
         offset="1"
         id="stop7885" />
    </radialGradient>
    <clipPath
       clipPathUnits="userSpaceOnUse"
       id="clipPath7897">
      <path
         d="m 3706.89,2539.22 v 90.86 l 78.21,-45.43 -78.21,-45.43"
         id="path7895" />
    </clipPath>
    <radialGradient
       fx="0"
       fy="0"
       cx="0"
       cy="0"
       r="1"
       gradientUnits="userSpaceOnUse"
       gradientTransform="matrix(3510.36,0,0,-3510.36,3750,2500)"
       spreadMethod="pad"
       id="radialGradient7905">
      <stop
         style="stop-opacity:1;stop-color:#74a1d8"
         offset="0"
         id="stop7899" />
      <stop
         style="stop-opacity:1;stop-color:#74a1d8"
         offset="0.0384615"
         id="stop7901" />
      <stop
         style="stop-opacity:1;stop-color:#6e92c1"
         offset="1"
         id="stop7903" />
    </radialGradient>
    <clipPath
       clipPathUnits="userSpaceOnUse"
       id="clipPath7915">
      <path
         d="m 3805.97,2539.22 v 90.86 l 78.21,-45.43 -78.21,-45.43"
         id="path7913" />
    </clipPath>
    <radialGradient
       fx="0"
       fy="0"
       cx="0"
       cy="0"
       r="1"
       gradientUnits="userSpaceOnUse"
       gradientTransform="matrix(3510.36,0,0,-3510.36,3750,2500)"
       spreadMethod="pad"
       id="radialGradient7923">
      <stop
         style="stop-opacity:1;stop-color:#74a1d8"
         offset="0"
         id="stop7917" />
      <stop
         style="stop-opacity:1;stop-color:#74a1d8"
         offset="0.0384615"
         id="stop7919" />
      <stop
         style="stop-opacity:1;stop-color:#6e92c1"
         offset="1"
         id="stop7921" />
    </radialGradient>
    <clipPath
       clipPathUnits="userSpaceOnUse"
       id="clipPath7933">
      <path
         d="m 3905.04,2539.22 v 90.86 l 78.21,-45.43 -78.21,-45.43"
         id="path7931" />
    </clipPath>
    <radialGradient
       fx="0"
       fy="0"
       cx="0"
       cy="0"
       r="1"
       gradientUnits="userSpaceOnUse"
       gradientTransform="matrix(3510.36,0,0,-3510.36,3750,2500)"
       spreadMethod="pad"
       id="radialGradient7941">
      <stop
         style="stop-opacity:1;stop-color:#74a1d8"
         offset="0"
         id="stop7935" />
      <stop
         style="stop-opacity:1;stop-color:#74a1d8"
         offset="0.0384615"
         id="stop7937" />
      <stop
         style="stop-opacity:1;stop-color:#6e92c1"
         offset="1"
         id="stop7939" />
    </radialGradient>
    <clipPath
       clipPathUnits="userSpaceOnUse"
       id="clipPath7951">
      <path
         d="m 4004.11,2539.22 v 90.86 l 78.21,-45.43 -78.21,-45.43"
         id="path7949" />
    </clipPath>
    <radialGradient
       fx="0"
       fy="0"
       cx="0"
       cy="0"
       r="1"
       gradientUnits="userSpaceOnUse"
       gradientTransform="matrix(3510.36,0,0,-3510.36,3750,2500)"
       spreadMethod="pad"
       id="radialGradient7959">
      <stop
         style="stop-opacity:1;stop-color:#74a1d8"
         offset="0"
         id="stop7953" />
      <stop
         style="stop-opacity:1;stop-color:#74a1d8"
         offset="0.0384615"
         id="stop7955" />
      <stop
         style="stop-opacity:1;stop-color:#6e92c1"
         offset="1"
         id="stop7957" />
    </radialGradient>
    <clipPath
       clipPathUnits="userSpaceOnUse"
       id="clipPath9355">
      <path
         d="m 6778.91,2290.13 h -40 v 20 h 40 v -20 m -90,0 h -39.99 v 20 h 39.99 v -20 m -90,0 h -39.99 v 20 h 39.99 v -20 m -90,0 h -39.99 v 20 h 39.99 v -20 m -89.99,0 h -40 v 20 h 40 v -20 m -95.19,11.02 -20,34.64 17.33,10 19.99,-34.64 -17.32,-10 m 500.15,17.7 -17.33,10 20,34.64 17.33,-10 -20,-34.64 m -545.15,60.24 -20,34.64 17.32,10 20.01,-34.64 -17.33,-10 m 590.15,17.7 -17.33,10 20,34.65 17.33,-10 -20,-34.65 m -635.15,60.24 -20,34.65 17.33,9.99 19.99,-34.64 -17.32,-10 m 680.15,17.71 -17.33,10 20,34.63 17.33,-10 -20,-34.63 m -725.15,60.24 -20,34.64 17.32,10 20.01,-34.64 -17.33,-10 m 770.15,17.7 -17.33,10 20,34.64 17.33,-10 -20,-34.64 m -815.15,60.24 -20,34.64 17.33,10 19.99,-34.64 -17.32,-10 m 860.15,17.7 -17.33,10 20,34.64 17.33,-10 -20,-34.64 m -905.15,60.25 -7.23,12.52 18.54,32.11 17.32,-10 -12.77,-22.11 1.47,-2.52 -17.33,-10 m 921.08,17.69 -20,34.64 17.33,10 20,-34.64 -17.33,-10 m -867.45,60.24 -17.32,10 20,34.65 17.32,-10 -20,-34.65 m 822.45,17.7 -20,34.64 17.33,10 20,-34.64 -17.33,-10 m -777.45,60.25 -17.32,10 20,34.64 17.32,-10 -20,-34.64 m 732.45,17.7 -20,34.64 17.33,10 20,-34.64 -17.33,-10 m -687.45,60.24 -17.32,10 20,34.64 17.32,-10 -20,-34.64 m 642.45,17.7 -19.99,34.64 17.32,10 20,-34.64 -17.33,-10 m -597.45,60.24 -17.32,10 20,34.65 17.32,-10 -20,-34.65 m 552.45,17.7 -20,34.64 17.33,10 20,-34.64 -17.33,-10 m -507.45,60.25 -17.32,10 15.06,26.08 h 21.42 v -20 h -9.88 l -9.28,-16.08 m 469.16,16.08 h -40 v 20 h 45.77 l 4.85,-8.38 -10.62,-6.13 v -5.49 m -90,0 h -40 v 20 h 40 v -20 m -90,0 h -40 v 20 h 40 v -20 m -90,0 h -40 v 20 h 40 v -20 m -90,0 h -40 v 20 h 40 v -20"
         id="path9353" />
    </clipPath>
    <radialGradient
       fx="0"
       fy="0"
       cx="0"
       cy="0"
       r="1"
       gradientUnits="userSpaceOnUse"
       gradientTransform="matrix(3510.36,0,0,-3510.36,3750,2500)"
       spreadMethod="pad"
       id="radialGradient9363">
      <stop
         style="stop-opacity:1;stop-color:#74a1d8"
         offset="0"
         id="stop9357" />
      <stop
         style="stop-opacity:1;stop-color:#74a1d8"
         offset="0.0384615"
         id="stop9359" />
      <stop
         style="stop-opacity:1;stop-color:#6e92c1"
         offset="1"
         id="stop9361" />
    </radialGradient>
  </defs>
  <sodipodi:namedview
     inkscape:window-maximized="0"
     inkscape:window-y="23"
     inkscape:window-x="0"
     inkscape:window-height="983"
     inkscape:window-width="1252"
     showgrid="false"
     inkscape:document-rotation="0"
     inkscape:current-layer="layer1"
     inkscape:document-units="mm"
     inkscape:cy="302.8471"
     inkscape:cx="131.93942"
     inkscape:zoom="1.01"
     inkscape:pageshadow="2"
     inkscape:pageopacity="0"
     borderopacity="1.0"
     bordercolor="#666666"
     pagecolor="#3a4d8f"
     id="base" />
  <metadata
     id="metadata9450">
    <rdf:RDF>
      <cc:Work
         rdf:about="">
        <dc:format>image/svg+xml</dc:format>
        <dc:type
           rdf:resource="http://purl.org/dc/dcmitype/StillImage" />
        <dc:title></dc:title>
      </cc:Work>
    </rdf:RDF>
  </metadata>
  <g
     transform="translate(4.1374231,6.4921458)"
     id="layer1"
     inkscape:groupmode="layer"
     inkscape:label="Layer 1">
    <g
       style="fill:#46899c;fill-opacity:1"
       transform="matrix(-0.03527778,0,0,-0.03527778,193.67089,111.68665)"
       id="g7801">
      <g
         style="fill:#46899c;fill-opacity:1"
         id="g7803"
         clip-path="url(#clipPath7807)">
        <path
           d="m 3211.51,2539.22 v 90.86 l 78.22,-45.43 -78.22,-45.43"
           style="fill:#46899c;fill-opacity:1;fill-rule:nonzero;stroke:none"
           id="path7817" />
      </g>
    </g>
    <g
       style="fill:#46899c;fill-opacity:1"
       transform="matrix(-0.03527778,0,0,-0.03527778,193.67089,111.68665)"
       id="g7819">
      <g
         style="fill:#46899c;fill-opacity:1"
         id="g7821"
         clip-path="url(#clipPath7825)">
        <path
           d="m 3310.58,2539.22 v 90.86 l 78.22,-45.43 -78.22,-45.43"
           style="fill:#46899c;fill-opacity:1;fill-rule:nonzero;stroke:none"
           id="path7835" />
      </g>
    </g>
    <g
       style="fill:#46899c;fill-opacity:1"
       transform="matrix(-0.03527778,0,0,-0.03527778,193.67089,111.68665)"
       id="g7837">
      <g
         style="fill:#46899c;fill-opacity:1"
         id="g7839"
         clip-path="url(#clipPath7843)">
        <path
           d="m 3409.66,2539.22 v 90.86 l 78.22,-45.43 -78.22,-45.43"
           style="fill:#46899c;fill-opacity:1;fill-rule:nonzero;stroke:none"
           id="path7853" />
      </g>
    </g>
    <g
       style="fill:#46899c;fill-opacity:1"
       transform="matrix(-0.03527778,0,0,-0.03527778,193.67089,111.68665)"
       id="g7855">
      <g
         style="fill:#46899c;fill-opacity:1"
         id="g7857"
         clip-path="url(#clipPath7861)">
        <path
           d="m 3508.74,2539.22 v 90.86 l 78.21,-45.43 -78.21,-45.43"
           style="fill:#46899c;fill-opacity:1;fill-rule:nonzero;stroke:none"
           id="path7871" />
      </g>
    </g>
    <g
       style="fill:#46899c;fill-opacity:1"
       transform="matrix(-0.03527778,0,0,-0.03527778,193.67089,111.68665)"
       id="g7873">
      <g
         style="fill:#46899c;fill-opacity:1"
         id="g7875"
         clip-path="url(#clipPath7879)">
        <path
           d="m 3607.81,2539.22 v 90.86 l 78.22,-45.43 -78.22,-45.43"
           style="fill:#46899c;fill-opacity:1;fill-rule:nonzero;stroke:none"
           id="path7889" />
      </g>
    </g>
    <g
       style="fill:#46899c;fill-opacity:1"
       transform="matrix(-0.03527778,0,0,-0.03527778,193.67089,111.68665)"
       id="g7891">
      <g
         style="fill:#46899c;fill-opacity:1"
         id="g7893"
         clip-path="url(#clipPath7897)">
        <path
           d="m 3706.89,2539.22 v 90.86 l 78.21,-45.43 -78.21,-45.43"
           style="fill:#46899c;fill-opacity:1;fill-rule:nonzero;stroke:none"
           id="path7907" />
      </g>
    </g>
    <g
       style="fill:#46899c;fill-opacity:1"
       transform="matrix(-0.03527778,0,0,-0.03527778,193.67089,111.68665)"
       id="g7909">
      <g
         style="fill:#46899c;fill-opacity:1"
         id="g7911"
         clip-path="url(#clipPath7915)">
        <path
           d="m 3805.97,2539.22 v 90.86 l 78.21,-45.43 -78.21,-45.43"
           style="fill:#46899c;fill-opacity:1;fill-rule:nonzero;stroke:none"
           id="path7925" />
      </g>
    </g>
    <g
       style="fill:#46899c;fill-opacity:1"
       transform="matrix(-0.03527778,0,0,-0.03527778,193.67089,111.68665)"
       id="g7927">
      <g
         style="fill:#46899c;fill-opacity:1"
         id="g7929"
         clip-path="url(#clipPath7933)">
        <path
           d="m 3905.04,2539.22 v 90.86 l 78.21,-45.43 -78.21,-45.43"
           style="fill:#46899c;fill-opacity:1;fill-rule:nonzero;stroke:none"
           id="path7943" />
      </g>
    </g>
    <g
       style="fill:#46899c;fill-opacity:1"
       transform="matrix(-0.03527778,0,0,-0.03527778,225.12703,111.68665)"
       id="g7945">
      <g
         style="fill:#46899c;fill-opacity:1"
         id="g7947"
         clip-path="url(#clipPath7951)">
        <path
           d="m 4004.11,2539.22 v 90.86 l 78.21,-45.43 -78.21,-45.43"
           style="fill:#46899c;fill-opacity:1;fill-rule:nonzero;stroke:none"
           id="path7961" />
      </g>
    </g>
    <g
       style="fill:#438195;fill-opacity:1"
       id="g8323"
       transform="matrix(0.03527778,0,0,-0.03527778,-98.127504,127.6941)">
      <g
         style="fill:#438195;fill-opacity:1"
         id="g8325"
         clip-path="url(#clipPath8329)">
        <path
           d="m 4065.36,2876.84 c -262.5,0 -461.83,2.08 -468.12,8.32 l -1.6,3.78 0.21,-1.24 c -7.22,16.45 -228.8,235.14 -414.37,415.71 -2.88,2.8 -5.76,5.61 -8.63,8.39 -25,24.32 -49.27,47.86 -72.18,70.04 l 6.95,7.19 c 19.49,-18.87 42.35,-41.02 67.36,-65.32 2.86,-2.78 5.74,-5.58 8.66,-8.41 158.88,-154.42 396.24,-387.18 420.06,-422.43 16.27,-4.43 187.75,-6.05 423.41,-6.05 365.19,0 884.61,3.87 1220.18,7.11 l 0.1,-9.99 c -231.62,-2.24 -780.63,-7.1 -1182.03,-7.1"
           style="fill:#438195;fill-opacity:1;fill-rule:nonzero;stroke:none"
           id="path8339" />
      </g>
    </g>
    <g
       style="fill:#3d7689;fill-opacity:1"
       transform="matrix(0.03527778,0,0,-0.03527778,-219.03202,103.4567)"
       id="g9349">
      <g
         style="fill:#3d7689;fill-opacity:1"
         id="g9351"
         clip-path="url(#clipPath9355)">
        <path
           d="m 6778.91,2290.13 h -40 v 20 h 40 v -20 m -90,0 h -39.99 v 20 h 39.99 v -20 m -90,0 h -39.99 v 20 h 39.99 v -20 m -90,0 h -39.99 v 20 h 39.99 v -20 m -89.99,0 h -40 v 20 h 40 v -20 m -95.19,11.02 -20,34.64 17.33,10 19.99,-34.64 -17.32,-10 m 500.15,17.7 -17.33,10 20,34.64 17.33,-10 -20,-34.64 m -545.15,60.24 -20,34.64 17.32,10 20.01,-34.64 -17.33,-10 m 590.15,17.7 -17.33,10 20,34.65 17.33,-10 -20,-34.65 m -635.15,60.24 -20,34.65 17.33,9.99 19.99,-34.64 -17.32,-10 m 680.15,17.71 -17.33,10 20,34.63 17.33,-10 -20,-34.63 m -725.15,60.24 -20,34.64 17.32,10 20.01,-34.64 -17.33,-10 m 770.15,17.7 -17.33,10 20,34.64 17.33,-10 -20,-34.64 m -815.15,60.24 -20,34.64 17.33,10 19.99,-34.64 -17.32,-10 m 860.15,17.7 -17.33,10 20,34.64 17.33,-10 -20,-34.64 m -905.15,60.25 -7.23,12.52 18.54,32.11 17.32,-10 -12.77,-22.11 1.47,-2.52 -17.33,-10 m 921.08,17.69 -20,34.64 17.33,10 20,-34.64 -17.33,-10 m -867.45,60.24 -17.32,10 20,34.65 17.32,-10 -20,-34.65 m 822.45,17.7 -20,34.64 17.33,10 20,-34.64 -17.33,-10 m -777.45,60.25 -17.32,10 20,34.64 17.32,-10 -20,-34.64 m 732.45,17.7 -20,34.64 17.33,10 20,-34.64 -17.33,-10 m -687.45,60.24 -17.32,10 20,34.64 17.32,-10 -20,-34.64 m 642.45,17.7 -19.99,34.64 17.32,10 20,-34.64 -17.33,-10 m -597.45,60.24 -17.32,10 20,34.65 17.32,-10 -20,-34.65 m 552.45,17.7 -20,34.64 17.33,10 20,-34.64 -17.33,-10 m -507.45,60.25 -17.32,10 15.06,26.08 h 21.42 v -20 h -9.88 l -9.28,-16.08 m 469.16,16.08 h -40 v 20 h 45.77 l 4.85,-8.38 -10.62,-6.13 v -5.49 m -90,0 h -40 v 20 h 40 v -20 m -90,0 h -40 v 20 h 40 v -20 m -90,0 h -40 v 20 h 40 v -20 m -90,0 h -40 v 20 h 40 v -20"
           style="fill:#3d7689;fill-opacity:1;fill-rule:nonzero;stroke:none"
           id="path9365" />
      </g>
    </g>
  </g>
</svg>
