<?xml version="1.0" encoding="UTF-8" standalone="no"?>
<svg
   xmlns:dc="http://purl.org/dc/elements/1.1/"
   xmlns:cc="http://creativecommons.org/ns#"
   xmlns:rdf="http://www.w3.org/1999/02/22-rdf-syntax-ns#"
   xmlns:svg="http://www.w3.org/2000/svg"
   xmlns="http://www.w3.org/2000/svg"
   xmlns:sodipodi="http://sodipodi.sourceforge.net/DTD/sodipodi-0.dtd"
   xmlns:inkscape="http://www.inkscape.org/namespaces/inkscape"
   sodipodi:docname="lines6.svg"
   inkscape:version="1.0 (4035a4f, 2020-05-01)"
   id="svg10419"
   version="1.1"
   viewBox="0 0 107.24223 88.79346"
   height="88.793457mm"
   width="107.24223mm">
  <defs
     id="defs10413">
    <clipPath
       clipPathUnits="userSpaceOnUse"
       id="clipPath8959">
      <path
         d="m 5401.91,1230.74 h -20.51 l -5.7,9.87 -17.09,-9.87 H 4354.09 l 5.78,10 h 1037.9 l 484.59,484.59 H 6530 l 322.65,-322.64 c 179.01,74.77 373.14,113.31 567.85,113.31 26.51,0 53,-0.71 79.5,-2.14 v -10.02 c -26.47,1.44 -52.98,2.16 -79.46,2.16 -194.52,0 -388.46,-38.7 -567.12,-113.83 l -3.1,-1.3 -324.46,324.46 H 5886.5 l -484.59,-484.59 m -1064.74,0 H 3306.6 v 10 h 1030.17 l -4.23,-7.32 4.63,-2.68"
         id="path8957" />
    </clipPath>
    <radialGradient
       fx="0"
       fy="0"
       cx="0"
       cy="0"
       r="1"
       gradientUnits="userSpaceOnUse"
       gradientTransform="matrix(3510.36,0,0,-3510.36,3750,2500)"
       spreadMethod="pad"
       id="radialGradient8967">
      <stop
         style="stop-opacity:1;stop-color:#74a1d8"
         offset="0"
         id="stop8961" />
      <stop
         style="stop-opacity:1;stop-color:#74a1d8"
         offset="0.0384615"
         id="stop8963" />
      <stop
         style="stop-opacity:1;stop-color:#6e92c1"
         offset="1"
         id="stop8965" />
    </radialGradient>
    <clipPath
       clipPathUnits="userSpaceOnUse"
       id="clipPath8005">
      <path
         d="m 818.859,3098.84 -1.734,69.98 c 3.145,0.08 6.289,0.18 9.43,0.31 l 2.871,-69.94 c -3.524,-0.15 -7.039,-0.26 -10.567,-0.35 m -42.289,0.36 c -3.519,0.14 -7.035,0.32 -10.547,0.52 l 4,69.88 c 3.133,-0.18 6.282,-0.33 9.418,-0.46 l -2.871,-69.94 m 95.047,3.11 -7.48,69.6 c 3.125,0.34 6.25,0.69 9.375,1.08 l 8.601,-69.47 c -3.496,-0.43 -6.992,-0.83 -10.496,-1.21 m -147.73,1.23 c -3.492,0.43 -6.977,0.9 -10.469,1.39 l 9.746,69.32 c 3.109,-0.44 6.227,-0.85 9.348,-1.24 l -8.625,-69.47 m 199.984,6.56 -11.285,59.17 -1.828,9.59 c 0.027,0.01 0.055,0.01 0.082,0.02 3.058,0.58 6.113,1.19 9.172,1.83 l 14.234,-68.54 c -3.449,-0.72 -6.906,-1.41 -10.375,-2.07 m -252.098,2.09 c -3.472,0.73 -6.933,1.48 -10.386,2.26 l 15.496,68.27 c 3.043,-0.69 6.097,-1.36 9.148,-1.99 l -14.258,-68.54 m 303.602,9.99 -18.762,67.44 c 3.032,0.84 6.055,1.71 9.063,2.6 l 19.879,-67.12 c -3.387,-1 -6.782,-1.97 -10.18,-2.92 m -354.891,2.95 c -3.375,1 -6.738,2.03 -10.097,3.09 l 21.023,66.77 c 3,-0.95 6,-1.87 9.004,-2.76 l -19.93,-67.1 m 405.216,13.35 -24.28,65.65 c 2.95,1.09 5.88,2.2 8.81,3.34 l 25.4,-65.23 c -3.31,-1.28 -6.61,-2.54 -9.93,-3.76 m -455.208,3.77 c -3.285,1.27 -6.562,2.59 -9.828,3.92 l 26.492,64.79 c 2.899,-1.18 5.801,-2.34 8.719,-3.48 l -25.383,-65.23 m 504.078,16.67 -29.74,63.37 c 2.86,1.34 5.71,2.7 8.55,4.09 l 30.7,-62.91 c -3.17,-1.54 -6.34,-3.06 -9.51,-4.55 m -552.5,4.54 c -3.175,1.55 -6.332,3.13 -9.48,4.73 l 31.832,62.35 c 2.777,-1.42 5.578,-2.82 8.379,-4.19 l -30.731,-62.89 m 599.4,19.86 -34.81,60.73 c 2.72,1.56 5.42,3.14 8.11,4.75 l 35.88,-60.1 c -3.04,-1.82 -6.1,-3.62 -9.18,-5.38 m -645.868,5.29 c -3.024,1.81 -6.032,3.64 -9.036,5.49 l 36.848,59.52 c 2.66,-1.65 5.336,-3.27 8.016,-4.87 l -35.828,-60.14 m 690.628,22.95 -39.73,57.64 c 2.58,1.77 5.14,3.58 7.69,5.4 l 40.76,-56.91 c -2.89,-2.07 -5.8,-4.11 -8.72,-6.13 m -734.839,5.98 c -2.868,2.04 -5.715,4.12 -8.555,6.22 l 41.672,56.25 c 2.512,-1.87 5.035,-3.7 7.566,-5.51 l -40.683,-56.96 m 777.159,25.92 -44.45,54.07 c 2.43,2.01 4.86,4.03 7.27,6.08 l 45.31,-53.36 c -2.7,-2.29 -5.41,-4.55 -8.13,-6.79 m -818.855,6.57 c -2.457,2.09 -4.894,4.19 -7.324,6.31 -0.223,0.2 -0.445,0.39 -0.668,0.58 l 46.113,52.67 c 0.332,-0.29 0.668,-0.58 1,-0.87 2.039,-1.78 4.094,-3.55 6.153,-5.3 l -45.274,-53.39 m 858.305,28.63 -48.67,50.31 c 2.25,2.18 4.49,4.38 6.72,6.6 l 50.64,-48.34 -1.33,-1.34 c -2.32,-2.31 -4.83,-4.79 -7.36,-7.23 m -897.184,7.17 -0.246,0.24 c -2.398,2.41 -4.777,4.83 -7.136,7.26 l 50.234,48.75 c 2.113,-2.18 4.246,-4.35 6.406,-6.51 l -49.258,-49.74 m 934.574,32.16 -52.72,46.06 c 2.07,2.37 4.12,4.75 6.14,7.14 l 53.47,-45.16 c -2.27,-2.7 -4.57,-5.38 -6.89,-8.04 m -970.425,6.7 c -2.289,2.69 -4.551,5.4 -6.785,8.12 l 54.07,44.45 c 2.004,-2.44 4.027,-4.86 6.074,-7.27 l -53.359,-45.3 m 1003.555,34.53 -56.35,41.53 c 1.85,2.52 3.69,5.05 5.5,7.59 l 57.04,-40.57 c -2.03,-2.87 -4.1,-5.72 -6.19,-8.55 m -1036.129,7.17 c -2.063,2.89 -4.106,5.78 -6.118,8.7 l 57.61,39.76 c 1.777,-2.57 3.586,-5.14 5.414,-7.7 l -56.906,-40.76 m 1065.689,36.58 -59.58,36.77 c 1.65,2.65 3.26,5.32 4.85,8.01 l 60.21,-35.72 c -1.8,-3.03 -3.63,-6.05 -5.48,-9.06 m -1094.717,7.7 c -1.808,3.04 -3.593,6.08 -5.355,9.14 l 60.683,34.9 c 1.567,-2.73 3.164,-5.45 4.778,-8.16 l -60.106,-35.88 m 1120.557,38.38 -62.41,31.72 c 1.42,2.79 2.81,5.59 4.18,8.4 l 62.94,-30.64 c -1.55,-3.17 -3.11,-6.33 -4.71,-9.48 m -1145.775,8.15 c -1.547,3.16 -3.067,6.33 -4.563,9.51 l 63.332,29.82 c 1.348,-2.86 2.707,-5.71 4.102,-8.56 l -62.871,-30.77 m 1167.735,40.01 -64.88,26.28 c 1.19,2.92 2.35,5.85 3.49,8.79 l 65.27,-25.29 c -1.26,-3.27 -2.56,-6.53 -3.88,-9.78 m -1189.001,8.42 c -1.285,3.3 -2.543,6.6 -3.77,9.91 l 65.61,24.39 c 1.094,-2.94 2.215,-5.88 3.355,-8.81 l -65.195,-25.49 m 1206.841,41.28 -66.8,20.92 c 0.94,2.99 1.85,5.99 2.74,9 l 67.14,-19.81 c -1,-3.38 -2.03,-6.75 -3.08,-10.11 m -1224.005,8.79 c -1.016,3.4 -1.992,6.81 -2.945,10.22 l 67.441,18.76 c 0.832,-3.01 1.699,-6.01 2.594,-9.01 l -67.09,-19.97 m 1237.685,42.23 -68.28,15.4 c 0.68,3.04 1.34,6.09 1.97,9.15 l 68.55,-14.16 c -0.72,-3.48 -1.46,-6.94 -2.24,-10.39 m -1250.646,9.06 c -0.723,3.45 -1.41,6.9 -2.078,10.36 l 68.738,13.23 c 0.59,-3.09 1.211,-6.17 1.856,-9.26 l -68.516,-14.33 m 1260.086,42.98 -69.33,9.66 c 0.43,3.1 0.84,6.22 1.22,9.33 l 69.48,-8.51 c -0.43,-3.5 -0.88,-6.99 -1.37,-10.48 m -1268.777,9.21 c -0.43,3.49 -0.84,6.99 -1.215,10.49 l 69.597,7.48 c 0.336,-3.12 0.7,-6.25 1.09,-9.37 l -69.472,-8.6 m 1273.897,43.41 -69.89,3.89 c 0.18,3.14 0.33,6.28 0.45,9.43 l 69.95,-2.78 c -0.14,-3.51 -0.31,-7.03 -0.51,-10.54 m -1278.253,9.26 c -0.144,3.52 -0.266,7.04 -0.355,10.56 l 69.984,1.74 c 0.078,-3.14 0.184,-6.28 0.309,-9.43 l -69.938,-2.87 m 1209.063,41.74 c -0.09,3.15 -0.19,6.29 -0.33,9.43 l 69.94,2.98 c 0.15,-3.52 0.27,-7.05 0.36,-10.57 l -69.97,-1.84 m -1139.149,8.25 -69.941,2.87 c 0.148,3.52 0.32,7.04 0.519,10.55 l 69.883,-4 c -0.18,-3.14 -0.332,-6.28 -0.461,-9.42 m 1135.979,38.75 c -0.34,3.13 -0.7,6.25 -1.09,9.38 l 69.45,8.71 c 0.44,-3.5 0.85,-7 1.24,-10.5 l -69.6,-7.59 m -1132.139,8.19 -69.465,8.62 c 0.434,3.49 0.895,6.99 1.387,10.47 l 69.312,-9.76 c -0.437,-3.1 -0.843,-6.22 -1.234,-9.33 m 1125.119,38.42 c -0.59,3.07 -1.21,6.14 -1.86,9.21 l 68.5,14.43 c 0.73,-3.47 1.43,-6.94 2.1,-10.41 l -68.74,-13.23 m -1117.424,8.06 -68.535,14.26 c 0.719,3.45 1.469,6.9 2.246,10.33 l 68.281,-15.4 c -0.687,-3.05 -1.351,-6.12 -1.992,-9.19 m 1106.584,37.79 c -0.85,3.02 -1.72,6.04 -2.62,9.05 l 67.09,19.97 c 1.01,-3.38 1.99,-6.77 2.94,-10.18 l -67.41,-18.84 m -1095.103,7.84 -67.11,19.9 c 1,3.38 2.032,6.75 3.09,10.12 l 66.766,-21.03 c -0.942,-2.99 -1.852,-5.99 -2.746,-8.99 m 1080.543,36.88 c -1.11,2.96 -2.23,5.91 -3.39,8.86 l 65.2,25.48 c 1.28,-3.27 2.53,-6.56 3.76,-9.85 l -65.57,-24.49 m -1065.325,7.66 -65.234,25.38 c 1.274,3.28 2.578,6.55 3.91,9.81 l 64.805,-26.45 c -1.184,-2.91 -2.344,-5.81 -3.481,-8.74 m 1047.055,35.79 c -1.33,2.84 -2.69,5.66 -4.07,8.47 l 62.81,30.9 c 1.57,-3.18 3.1,-6.38 4.61,-9.59 l -63.35,-29.78 m -1028.207,7.29 -62.89,30.74 c 1.542,3.16 3.109,6.31 4.707,9.44 l 62.382,-31.76 c -1.422,-2.79 -2.82,-5.6 -4.199,-8.42 m 1006.397,34.47 c -1.56,2.71 -3.15,5.42 -4.77,8.11 l 60.03,36 c 1.83,-3.05 3.63,-6.1 5.39,-9.17 l -60.65,-34.94 m -984.026,6.92 -60.136,35.83 c 1.804,3.02 3.628,6.03 5.488,9.03 l 59.519,-36.85 c -1.648,-2.66 -3.269,-5.33 -4.871,-8.01 m 958.776,32.92 c -1.77,2.57 -3.57,5.12 -5.4,7.66 l 56.85,40.83 c 2.09,-2.89 4.14,-5.8 6.16,-8.72 l -57.61,-39.77 m -933.053,6.45 -56.961,40.68 c 2.047,2.86 4.113,5.72 6.211,8.55 l 56.258,-41.66 c -1.86,-2.51 -3.696,-5.04 -5.508,-7.57 m 904.663,31.09 c -1.99,2.42 -4.02,4.84 -6.06,7.23 l 53.27,45.41 c 2.3,-2.7 4.57,-5.41 6.82,-8.14 l -54.03,-44.5 m -875.737,6.06 -53.438,45.22 c 2.278,2.69 4.582,5.36 6.91,8.02 l 52.664,-46.11 c -2.074,-2.37 -4.113,-4.74 -6.136,-7.13 m 844.287,29.08 c -1.97,2.02 -3.96,4.04 -5.96,6.04 l -0.73,0.73 49.5,49.5 0.73,-0.72 c 2.23,-2.24 4.44,-4.49 6.63,-6.75 l -50.17,-48.8 m -811.936,6.04 -49.98,49.03 0.476,0.48 c 2.336,2.33 4.676,4.63 7.035,6.91 l 48.719,-50.26 c -2.094,-2.03 -4.179,-4.08 -6.25,-6.16 m 777.746,26.41 c -2.38,2.08 -4.76,4.14 -7.16,6.16 l 45.21,53.44 c 2.68,-2.27 5.36,-4.56 8.01,-6.88 l -46.06,-52.72 m -743.562,5.14 -45.352,53.32 c 2.688,2.29 5.391,4.55 8.114,6.79 l 44.507,-54.02 c -2.433,-2.01 -4.855,-4.04 -7.269,-6.09 m 706.872,24.37 c -2.54,1.88 -5.09,3.73 -7.64,5.55 l 40.69,56.96 c 2.84,-2.02 5.67,-4.08 8.49,-6.16 l -41.54,-56.35 m -669.751,4.67 -40.762,56.9 c 2.871,2.06 5.754,4.09 8.649,6.1 l 39.843,-57.56 c -2.589,-1.8 -5.164,-3.61 -7.73,-5.44 m 630.791,21.7 c -2.67,1.65 -5.35,3.28 -8.04,4.88 l 35.79,60.15 c 3.01,-1.79 6.02,-3.62 9.02,-5.46 l -36.77,-59.57 m -591.369,4.17 -35.957,60.05 c 3.043,1.83 6.09,3.61 9.148,5.37 l 34.946,-60.65 c -2.723,-1.57 -5.438,-3.16 -8.137,-4.77 m 550.349,18.86 c -2.79,1.42 -5.59,2.81 -8.4,4.18 l 30.65,62.94 c 3.17,-1.54 6.32,-3.11 9.47,-4.72 l -31.72,-62.4 m -508.966,3.61 -30.813,62.85 c 3.172,1.56 6.348,3.08 9.543,4.59 l 29.785,-63.36 c -2.851,-1.33 -5.691,-2.69 -8.515,-4.08 m 466.206,15.92 c -2.9,1.18 -5.81,2.34 -8.73,3.47 l 25.28,65.28 c 3.28,-1.27 6.55,-2.57 9.82,-3.91 l -26.37,-64.84 m -423.077,3.02 -25.489,65.2 c 3.278,1.28 6.563,2.53 9.856,3.76 l 24.488,-65.58 c -2.957,-1.1 -5.91,-2.22 -8.855,-3.38 m 378.8,12.91 c -2.996,0.94 -5.992,1.86 -9,2.74 l 19.813,67.14 c 3.379,-0.99 6.75,-2.02 10.113,-3.08 l -20.926,-66.8 m -334.273,2.39 -19.973,67.09 c 3.399,1.02 6.809,2 10.223,2.95 l 18.758,-67.43 c -3.012,-0.84 -6.008,-1.71 -9.008,-2.61 m 288.777,9.83 c -3.054,0.69 -6.125,1.35 -9.191,1.99 l 14.258,68.54 c 3.449,-0.73 6.894,-1.47 10.336,-2.25 l -15.403,-68.28 m -243.125,1.75 -14.336,68.51 c 3.449,0.72 6.907,1.42 10.364,2.09 l 13.23,-68.75 c -3.086,-0.59 -6.172,-1.21 -9.258,-1.85 m 196.785,6.67 c -3.089,0.44 -6.191,0.84 -9.289,1.22 l 8.516,69.49 c 3.516,-0.43 7.027,-0.9 10.527,-1.39 l -9.754,-69.32 m -150.285,1.09 -8.711,69.45 c 3.516,0.45 7.032,0.85 10.555,1.23 l 7.477,-69.6 c -3.11,-0.33 -6.215,-0.7 -9.321,-1.08 m 103.43,3.5 c -3.121,0.18 -6.246,0.33 -9.371,0.46 l 2.769,69.94 c 3.539,-0.14 7.075,-0.31 10.602,-0.52 l -4,-69.88 m -56.488,0.41 -2.977,69.94 c 3.539,0.15 7.074,0.27 10.613,0.36 l 1.739,-69.98 c -3.129,-0.08 -6.25,-0.19 -9.375,-0.32"
         id="path8003" />
    </clipPath>
    <radialGradient
       fx="0"
       fy="0"
       cx="0"
       cy="0"
       r="1"
       gradientUnits="userSpaceOnUse"
       gradientTransform="matrix(3510.36,0,0,-3510.36,3750,2500)"
       spreadMethod="pad"
       id="radialGradient8013">
      <stop
         style="stop-opacity:1;stop-color:#74a1d8"
         offset="0"
         id="stop8007" />
      <stop
         style="stop-opacity:1;stop-color:#74a1d8"
         offset="0.0384615"
         id="stop8009" />
      <stop
         style="stop-opacity:1;stop-color:#6e92c1"
         offset="1"
         id="stop8011" />
    </radialGradient>
    <clipPath
       clipPathUnits="userSpaceOnUse"
       id="clipPath8023">
      <path
         d="m 803.063,3411.16 c -5.411,0 -10.817,0.13 -16.211,0.4 l -4.993,0.25 3.95,79.9 4.996,-0.25 c 4.136,-0.2 8.269,-0.3 12.394,-0.3 21.766,0 43.352,2.86 64.367,8.51 l 4.832,1.3 20.77,-77.25 -4.828,-1.3 c -27.758,-7.46 -56.449,-11.25 -85.277,-11.26 m -7.754,70.12 -2.965,-59.94 c 3.625,-0.12 7.258,-0.19 10.883,-0.19 26.195,0 52.332,3.27 77.675,9.66 l -15.582,57.95 c -20.304,-5.04 -41.109,-7.6 -62.05,-7.6 -2.653,0 -5.305,0.04 -7.961,0.12 m -71.012,-60.59 -4.84,1.28 c -33.215,8.74 -64.676,22.58 -93.5,41.15 l -4.203,2.71 43.324,67.25 4.203,-2.7 c 21.739,-14.01 45.473,-24.45 70.535,-31.05 l 4.836,-1.27 -20.355,-77.37 m -56.199,98.61 -32.5,-50.45 c 25.363,-15.77 52.765,-27.83 81.578,-35.9 l 15.273,58.03 c -22.703,6.45 -44.308,15.95 -64.351,28.32 m 279.5,-74.64 -36.418,71.23 4.453,2.28 c 22.965,11.74 43.949,27.03 62.363,45.45 1.266,1.26 2.504,2.53 3.727,3.81 l 3.457,3.6 57.78,-55.32 -3.45,-3.61 c -1.62,-1.7 -3.28,-3.38 -4.93,-5.04 -24.35,-24.35 -52.119,-44.58 -82.529,-60.12 l -4.453,-2.28 m 37.851,112.27 -0.386,-0.38 c -17.958,-17.97 -38.278,-33.08 -60.45,-44.97 l 27.321,-53.43 c 27.742,14.75 53.146,33.56 75.566,55.97 l 1.3,1.31 -43.351,41.5 m -409.043,-54.66 -4.824,4.75 c -23.949,23.96 -43.902,51.19 -59.336,80.98 l -2.301,4.44 71.035,36.8 2.301,-4.44 c 11.657,-22.49 26.739,-43.08 44.844,-61.18 l 4.438,-4.44 -56.157,-56.91 m 0.344,113.51 -53.289,-27.6 c 14.105,-26.21 31.871,-50.31 52.875,-71.75 l 42.148,42.73 c -16.515,16.98 -30.535,35.99 -41.734,56.62 m 501.94,-54.09 -67.94,42.22 2.63,4.24 c 13.65,21.96 23.7,45.85 29.9,71.04 l 1.19,4.86 77.69,-19.11 -1.2,-4.86 c -8.2,-33.36 -21.54,-65.04 -39.63,-94.14 l -2.64,-4.25 m -26.95,110.27 c -6.08,-22.81 -15.23,-44.58 -27.26,-64.81 l 50.96,-31.67 c 15.37,25.61 26.98,53.2 34.58,82.15 l -58.28,14.33 m -563.037,-25.2 -1.32,4.82 c -7.774,28.29 -11.715,57.56 -11.719,86.97 0,4.82 0.102,9.63 0.316,14.45 l 0.223,4.99 79.914,-3.5 -0.215,-4.99 c -0.156,-3.65 -0.238,-7.3 -0.238,-10.94 0.008,-22.26 2.984,-44.4 8.859,-65.79 l 1.329,-4.83 -77.149,-21.18 m -2.91,100.8 c -0.086,-3 -0.129,-6 -0.129,-9.01 0.004,-26.84 3.395,-53.57 10.074,-79.49 l 57.864,15.89 c -5.262,20.75 -7.93,42.13 -7.938,63.61 0,2.12 0.024,4.25 0.078,6.37 l -59.949,2.63 m 644.317,-24.94 -79.95,2.69 0.16,5 c 0.09,2.75 0.14,5.49 0.14,8.24 -0.01,23.18 -3.23,46.18 -9.58,68.37 l -1.37,4.81 76.91,22 1.37,-4.8 c 8.4,-29.36 12.66,-59.76 12.67,-90.37 0,-3.65 -0.06,-7.3 -0.19,-10.94 l -0.16,-5 m -20.59,98.74 -57.69,-16.51 c 5.72,-21.59 8.62,-43.86 8.63,-66.3 0,-1.19 -0.01,-2.38 -0.02,-3.58 l 59.97,-2.02 c 0.03,1.87 0.05,3.74 0.05,5.61 0,28.01 -3.69,55.84 -10.94,82.8 m -547.262,-25.7 -77.485,19.95 1.25,4.84 c 8.567,33.27 22.243,64.8 40.649,93.72 l 2.683,4.21 67.489,-42.96 -2.684,-4.21 c -13.887,-21.81 -24.203,-45.6 -30.66,-70.7 l -1.242,-4.85 m -29.801,108.89 c -15.637,-25.43 -27.551,-52.9 -35.465,-81.76 l 58.113,-14.96 c 6.325,22.74 15.715,44.39 27.977,64.5 l -50.625,32.22 m 491.493,-54.29 -2.35,4.42 c -11.46,21.56 -26.131,41.34 -43.604,58.81 l -6.426,6.34 55.68,57.44 7.29,-7.18 c 23.11,-23.11 42.51,-49.29 57.7,-77.84 l 2.34,-4.42 -70.63,-37.57 m 3.47,112.81 -41.772,-43.09 c 16.742,-16.85 30.972,-35.73 42.392,-56.21 l 52.99,28.17 c -14.35,25.98 -32.34,49.86 -53.53,71.05 l -0.08,0.08 m -404.611,-54.94 -57.321,55.8 6.125,6.19 c 23.465,23.46 50.145,43.12 79.325,58.43 l 4.429,2.33 37.188,-70.83 -4.43,-2.33 c -22.043,-11.57 -42.227,-26.45 -60,-44.23 l -5.316,-5.36 m 28.371,109.21 c -26.164,-14.26 -50.188,-32.17 -71.489,-53.29 l 43.004,-41.86 c 16.895,16.6 35.828,30.71 56.375,42.02 l -27.89,53.13 m 287.644,-71.83 -4.234,2.66 c -21.887,13.77 -45.735,23.96 -70.867,30.29 l -4.852,1.22 19.524,77.58 4.847,-1.22 c 33.317,-8.39 64.922,-21.89 93.938,-40.14 l 4.23,-2.66 -42.586,-67.73 m -53.183,99.57 -14.645,-58.19 c 22.774,-6.21 44.481,-15.48 64.656,-27.63 l 31.95,50.8 c -25.532,15.5 -53.055,27.26 -81.961,35.02 m -154.461,-69.68 -21.61,77.02 4.817,1.35 c 28.797,8.08 58.582,12.19 88.613,12.19 4.234,0 8.477,-0.08 12.723,-0.25 l 5,-0.18 -3.047,-79.95 -5,0.19 c -3.219,0.13 -6.442,0.19 -9.656,0.19 -22.625,0 -45.133,-3.08 -67.032,-9.22 l -4.808,-1.34 m 71.652,80.56 c -27.422,0 -54.57,-3.55 -80.918,-10.5 l 16.207,-57.79 c 21.219,5.51 42.953,8.29 64.817,8.29 1.707,0 3.417,-0.01 5.125,-0.05 l 2.285,59.96 c -2.508,0.06 -5.016,0.09 -7.516,0.09"
         id="path8021" />
    </clipPath>
    <radialGradient
       fx="0"
       fy="0"
       cx="0"
       cy="0"
       r="1"
       gradientUnits="userSpaceOnUse"
       gradientTransform="matrix(3510.36,0,0,-3510.36,3750,2500)"
       spreadMethod="pad"
       id="radialGradient8031">
      <stop
         style="stop-opacity:1;stop-color:#74a1d8"
         offset="0"
         id="stop8025" />
      <stop
         style="stop-opacity:1;stop-color:#74a1d8"
         offset="0.0384615"
         id="stop8027" />
      <stop
         style="stop-opacity:1;stop-color:#6e92c1"
         offset="1"
         id="stop8029" />
    </radialGradient>
    <clipPath
       clipPathUnits="userSpaceOnUse"
       id="clipPath8707">
      <path
         d="m 3221.46,1206.91 c -15.1,0 -27.38,12.28 -27.38,27.38 0,15.1 12.28,27.38 27.38,27.38 15.09,0 27.37,-12.28 27.37,-27.38 0,-15.1 -12.28,-27.38 -27.37,-27.38 m 0,44.76 c -9.58,0 -17.38,-7.8 -17.38,-17.38 0,-9.58 7.8,-17.38 17.38,-17.38 9.58,0 17.37,7.8 17.37,17.38 0,9.58 -7.79,17.38 -17.37,17.38"
         id="path8705" />
    </clipPath>
    <radialGradient
       fx="0"
       fy="0"
       cx="0"
       cy="0"
       r="1"
       gradientUnits="userSpaceOnUse"
       gradientTransform="matrix(3510.36,0,0,-3510.36,3750,2500)"
       spreadMethod="pad"
       id="radialGradient8715">
      <stop
         style="stop-opacity:1;stop-color:#74a1d8"
         offset="0"
         id="stop8709" />
      <stop
         style="stop-opacity:1;stop-color:#74a1d8"
         offset="0.0384615"
         id="stop8711" />
      <stop
         style="stop-opacity:1;stop-color:#6e92c1"
         offset="1"
         id="stop8713" />
    </radialGradient>
    <clipPath
       clipPathUnits="userSpaceOnUse"
       id="clipPath9319">
      <path
         d="m 3890.66,1379.65 h -40 v 20 h 40 v -20 m -90,0 h -40 v 20 h 40 v -20 m -90,0 h -40 v 20 h 40 v -20 m -90,0 h -7.4 l -22.07,38.23 17.32,10 19.18,-33.23 -7.03,-4.06 v -10.94 m 309.24,38.63 -17.32,10 20,34.64 17.32,-10 -20,-34.64 m -363.71,42.9 -20,34.64 17.31,10 20.01,-34.64 -17.32,-10 m 408.71,35.04 -17.32,10 20,34.64 17.32,-10 -20,-34.64 m -453.72,42.9 -20,34.64 17.33,10 20,-34.64 -17.33,-10 m 498.72,35.04 -17.32,10 20,34.65 17.32,-10 -20,-34.65 m -543.72,42.9 -10.09,17.49 15.68,27.16 17.32,-10 -9.91,-17.16 4.33,-7.49 -17.33,-10 m 545.36,35.05 -20.01,34.64 17.33,10 20.01,-34.64 -17.33,-10 m -497.45,42.9 -17.32,10 20,34.64 17.32,-10 -20,-34.64 m 452.44,35.04 -20,34.64 17.33,10 20,-34.64 -17.33,-10 m -407.44,42.9 -17.32,10 20,34.64 17.32,-10 -20,-34.64 m 362.44,35.04 -20,34.64 17.33,10 20,-34.64 -17.33,-10 m -317.44,42.9 -17.32,10 16.49,28.56 h 18.57 v -20 h -7.02 l -10.72,-18.56 m 287.74,18.56 h -40 v 20 h 40 v -20 m -90,0 h -40 v 20 h 40 v -20 m -90,0 h -40 v 20 h 40 v -20"
         id="path9317" />
    </clipPath>
    <radialGradient
       fx="0"
       fy="0"
       cx="0"
       cy="0"
       r="1"
       gradientUnits="userSpaceOnUse"
       gradientTransform="matrix(3510.36,0,0,-3510.36,3750,2500)"
       spreadMethod="pad"
       id="radialGradient9327">
      <stop
         style="stop-opacity:1;stop-color:#74a1d8"
         offset="0"
         id="stop9321" />
      <stop
         style="stop-opacity:1;stop-color:#74a1d8"
         offset="0.0384615"
         id="stop9323" />
      <stop
         style="stop-opacity:1;stop-color:#6e92c1"
         offset="1"
         id="stop9325" />
    </radialGradient>
    <clipPath
       clipPathUnits="userSpaceOnUse"
       id="clipPath9355">
      <path
         d="m 6778.91,2290.13 h -40 v 20 h 40 v -20 m -90,0 h -39.99 v 20 h 39.99 v -20 m -90,0 h -39.99 v 20 h 39.99 v -20 m -90,0 h -39.99 v 20 h 39.99 v -20 m -89.99,0 h -40 v 20 h 40 v -20 m -95.19,11.02 -20,34.64 17.33,10 19.99,-34.64 -17.32,-10 m 500.15,17.7 -17.33,10 20,34.64 17.33,-10 -20,-34.64 m -545.15,60.24 -20,34.64 17.32,10 20.01,-34.64 -17.33,-10 m 590.15,17.7 -17.33,10 20,34.65 17.33,-10 -20,-34.65 m -635.15,60.24 -20,34.65 17.33,9.99 19.99,-34.64 -17.32,-10 m 680.15,17.71 -17.33,10 20,34.63 17.33,-10 -20,-34.63 m -725.15,60.24 -20,34.64 17.32,10 20.01,-34.64 -17.33,-10 m 770.15,17.7 -17.33,10 20,34.64 17.33,-10 -20,-34.64 m -815.15,60.24 -20,34.64 17.33,10 19.99,-34.64 -17.32,-10 m 860.15,17.7 -17.33,10 20,34.64 17.33,-10 -20,-34.64 m -905.15,60.25 -7.23,12.52 18.54,32.11 17.32,-10 -12.77,-22.11 1.47,-2.52 -17.33,-10 m 921.08,17.69 -20,34.64 17.33,10 20,-34.64 -17.33,-10 m -867.45,60.24 -17.32,10 20,34.65 17.32,-10 -20,-34.65 m 822.45,17.7 -20,34.64 17.33,10 20,-34.64 -17.33,-10 m -777.45,60.25 -17.32,10 20,34.64 17.32,-10 -20,-34.64 m 732.45,17.7 -20,34.64 17.33,10 20,-34.64 -17.33,-10 m -687.45,60.24 -17.32,10 20,34.64 17.32,-10 -20,-34.64 m 642.45,17.7 -19.99,34.64 17.32,10 20,-34.64 -17.33,-10 m -597.45,60.24 -17.32,10 20,34.65 17.32,-10 -20,-34.65 m 552.45,17.7 -20,34.64 17.33,10 20,-34.64 -17.33,-10 m -507.45,60.25 -17.32,10 15.06,26.08 h 21.42 v -20 h -9.88 l -9.28,-16.08 m 469.16,16.08 h -40 v 20 h 45.77 l 4.85,-8.38 -10.62,-6.13 v -5.49 m -90,0 h -40 v 20 h 40 v -20 m -90,0 h -40 v 20 h 40 v -20 m -90,0 h -40 v 20 h 40 v -20 m -90,0 h -40 v 20 h 40 v -20"
         id="path9353" />
    </clipPath>
    <radialGradient
       fx="0"
       fy="0"
       cx="0"
       cy="0"
       r="1"
       gradientUnits="userSpaceOnUse"
       gradientTransform="matrix(3510.36,0,0,-3510.36,3750,2500)"
       spreadMethod="pad"
       id="radialGradient9363">
      <stop
         style="stop-opacity:1;stop-color:#74a1d8"
         offset="0"
         id="stop9357" />
      <stop
         style="stop-opacity:1;stop-color:#74a1d8"
         offset="0.0384615"
         id="stop9359" />
      <stop
         style="stop-opacity:1;stop-color:#6e92c1"
         offset="1"
         id="stop9361" />
    </radialGradient>
    <radialGradient
       fx="-0.02136533"
       fy="-0.64523298"
       cx="-0.02136533"
       cy="-0.64523298"
       r="1"
       gradientUnits="userSpaceOnUse"
       gradientTransform="matrix(-123.8377,0,0,-123.8377,169.35984,37.236832)"
       spreadMethod="pad"
       id="radialGradient11532">
      <stop
         style="stop-opacity:1;stop-color:#74a1d8"
         offset="0"
         id="stop11528" />
      <stop
         style="stop-opacity:1;stop-color:#6e92c1"
         offset="1"
         id="stop11530" />
    </radialGradient>
    <radialGradient
       fx="0"
       fy="0"
       cx="0"
       cy="0"
       r="1"
       gradientUnits="userSpaceOnUse"
       gradientTransform="matrix(-123.8377,0,0,-123.8377,169.35984,37.236832)"
       spreadMethod="pad"
       id="radialGradient11514">
      <stop
         style="stop-opacity:1;stop-color:#74a1d8"
         offset="0"
         id="stop11508" />
      <stop
         style="stop-opacity:1;stop-color:#74a1d8"
         offset="0.0384615"
         id="stop11510" />
      <stop
         style="stop-opacity:1;stop-color:#6e92c1"
         offset="1"
         id="stop11512" />
    </radialGradient>
  </defs>
  <sodipodi:namedview
     inkscape:window-maximized="0"
     inkscape:window-y="23"
     inkscape:window-x="0"
     inkscape:window-height="983"
     inkscape:window-width="1252"
     showgrid="false"
     inkscape:document-rotation="0"
     inkscape:current-layer="layer1"
     inkscape:document-units="mm"
     inkscape:cy="285.60939"
     inkscape:cx="147.35267"
     inkscape:zoom="1"
     inkscape:pageshadow="2"
     inkscape:pageopacity="0"
     borderopacity="1.0"
     bordercolor="#666666"
     pagecolor="#3a4d8f"
     id="base" />
  <metadata
     id="metadata10416">
    <rdf:RDF>
      <cc:Work
         rdf:about="">
        <dc:format>image/svg+xml</dc:format>
        <dc:type
           rdf:resource="http://purl.org/dc/dcmitype/StillImage" />
        <dc:title></dc:title>
      </cc:Work>
    </rdf:RDF>
  </metadata>
  <g
     transform="translate(-188.01765,-10.454652)"
     id="layer1"
     inkscape:groupmode="layer"
     inkscape:label="Layer 1">
    <path
       sodipodi:nodetypes="ccccccccccccccscccccccccccccccccscccccccccsccccccccccccscccccccccscccccccccsccccccccccccccccccccccccccccccccccccccc"
       d="m 273.32122,10.454652 c 7.4144,0 14.73895,1.15499 21.7708,3.43323 l 0.16785,0.0547 -2.02501,6.25087 -0.21745,0.67099 -1.36455,4.21181 -0.10873,0.33584 -0.65771,2.03024 c -0.11095,-0.0363 -0.22437,-0.073 -0.33571,-0.10866 l 0.65786,-2.03058 0.10873,-0.3355 1.3644,-4.21181 0.21745,-0.67134 1.91633,-5.91502 c -6.94517,-2.23097 -14.17574,-3.36197 -21.49426,-3.36197 -2.05807,0 -4.14016,0.0917 -6.19164,0.27234 l 0.56184,6.19301 0.0638,0.70239 0.62234,6.86082 c -0.11716,0.0102 -0.23428,0.0208 -0.35126,0.0318 l -0.62234,-6.86047 -0.0638,-0.70238 -0.59369,-6.54509 0.17572,-0.0159 c 2.1186,-0.19191 4.27164,-0.28928 6.39903,-0.28928 m -26.00067,4.95476 2.43628,6.10235 0.26176,0.65511 4.36563,10.93435 -0.16369,0.0656 c -0.17533,0.0699 -0.34996,0.14076 -0.52423,0.21238 -0.10865,0.0452 -0.21696,0.09 -0.32561,0.13582 -6.13481,2.57669 -11.65296,6.29179 -16.41299,11.05182 -0.40816,0.40816 -0.8128,0.8262 -1.20262,1.24283 l -0.12065,0.12841 -5.10328,-4.77696 -0.25753,-0.24095 -2.55658,-2.39289 c 0.0801,-0.0861 0.16051,-0.17215 0.2406,-0.25788 l 2.55693,2.39324 0.25753,0.2413 4.8461,4.53602 c 0.35525,-0.37677 0.72108,-0.75353 1.09009,-1.12254 4.79319,-4.79319 10.34944,-8.53369 16.52693,-11.12837 0.1083,-0.0455 0.21696,-0.0907 0.32561,-0.13547 0.12171,-0.0501 0.24307,-0.0998 0.36513,-0.14887 l -4.2351,-10.60697 -0.26141,-0.65511 -2.30575,-5.77462 c -5.81131,2.33716 -11.22327,5.40879 -16.1731,9.17328 l -0.21414,-0.28046 c 5.0218,-3.81917 10.51666,-6.9289 16.42005,-9.28581 l 0.16404,-0.0656 m -16.86419,9.56592 0.21414,0.28011 c -2.42535,1.86408 -4.73851,3.89537 -6.93244,6.0893 -0.5073,0.50729 -1.01565,1.03117 -1.51271,1.55928 l 5.47476,5.12444 c -0.0804,0.0857 -0.16052,0.17145 -0.2406,0.25788 l -5.73299,-5.3661 0.121,-0.12911 c 0.53764,-0.57397 1.08973,-1.14477 1.64113,-1.69581 2.20486,-2.20486 4.53001,-4.24674 6.96771,-6.11999 m 37.98496,0.56374 0.34561,3.81036 c 1.50139,-0.13124 3.02592,-0.19756 4.53429,-0.19756 0.99413,0 1.98551,0.0282 2.97424,0.0843 0.11712,0.007 0.23495,0.0138 0.3521,0.0215 4.2562,0.27094 8.45164,1.06257 12.51423,2.36326 l 1.17161,-3.61632 c 0.11162,0.036 0.22433,0.0723 0.33556,0.10901 l -1.28009,3.95146 -0.16795,-0.0547 c -4.08605,-1.32362 -8.30958,-2.1276 -12.59473,-2.40065 -0.11727,-0.007 -0.23467,-0.0145 -0.35208,-0.0212 -0.9816,-0.0561 -1.96592,-0.084 -2.95289,-0.084 -1.55663,0 -3.13076,0.0713 -4.67801,0.21167 l -0.17568,0.0159 -0.37761,-4.16172 c 0.11715,-0.0106 0.23413,-0.0212 0.3514,-0.0314 m -58.12575,23.77722 10.47715,5.22569 0.31573,0.1577 6.25405,3.119256 -0.0787,0.158044 c -0.254,0.509058 -0.49953,1.021998 -0.73589,1.537758 -0.049,0.106892 -0.0974,0.213784 -0.1457,0.32103 -2.57422,5.718879 -4.06048,11.809587 -4.42243,18.135952 l -0.01,0.176035 -4.15431,-0.237419 c 0.006,-0.117475 0.013,-0.23495 0.0204,-0.352425 l 3.80224,0.217311 c 0.3817,-6.306961 1.87431,-12.379677 4.44253,-18.085152 0.0483,-0.106892 0.097,-0.21449 0.14605,-0.321382 0.21378,-0.46637 0.43462,-0.92992 0.66287,-1.391354 l -5.93867,-2.961924 -0.31573,-0.15769 -10.16176,-5.06836 c -2.44087,4.92443 -4.27638,10.061928 -5.49381,15.363474 l -0.34396,-0.07867 c 1.23649,-5.385152 3.10797,-10.602734 5.6007,-15.600184 l 0.079,-0.15769 m -5.75768,16.101833 0.34395,0.07902 c -0.82338,3.670652 -1.35078,7.419975 -1.57832,11.230327 l 7.46089,0.426868 c -0.007,0.117475 -0.0138,0.235304 -0.0201,0.352425 l -7.81332,-0.446969 0.0102,-0.176035 c 0.22261,-3.89114 0.75636,-7.719132 1.59668,-11.465632 m 6.57894,11.756319 5.99475,0.343255 c -0.007,0.11712 -0.0141,0.234595 -0.0204,0.35207 l -5.9944,-0.3429 c 0.006,-0.117475 0.013,-0.23495 0.0201,-0.352425"
       style="fill:url(#radialGradient11514);fill-opacity:1;fill-rule:nonzero;stroke:none;stroke-width:0.0352777"
       id="path11516" />
    <path
       sodipodi:nodetypes="ccccccccsccccccsccccccccccccccccccccccccccccccccccccccccccccc"
       d="m 221.75086,12.998492 8.9856,11.76231 0.21414,0.28046 4.76532,6.23782 -0.14005,0.10725 c -2.72979,2.08526 -5.27508,4.38608 -7.61823,6.88304 -0.0801,0.0857 -0.16052,0.1718 -0.2406,0.25788 -2.026,2.18405 -3.89784,4.5152 -5.60458,6.98218 -1.07245,1.55081 -2.08703,3.16936 -3.01519,4.81012 l -0.0868,0.15346 -20.02402,-11.32452 0.0868,-0.15345 c 1.26788,-2.24226 2.65395,-4.45382 4.11974,-6.57261 l 0.14499,0.10055 -0.14499,-0.10055 c 5.10751,-7.38328 11.30406,-13.88251 18.41747,-19.3167 l 0.1404,-0.10724 m 8.7055,11.9768 -8.77147,-11.48221 c -7.02557,5.3901 -13.14873,11.82547 -18.20156,19.13008 -1.42629,2.06199 -2.77672,4.21147 -4.01638,6.39198 l 19.41054,10.97743 c 0.90946,-1.59738 1.89971,-3.17253 2.94499,-4.68383 1.71626,-2.48109 3.59939,-4.82635 5.63703,-7.0224 0.0801,-0.0864 0.16016,-0.17215 0.2406,-0.25788 2.31598,-2.46838 4.82917,-4.74627 7.52157,-6.81496 l -4.55118,-5.95806 -0.21414,-0.28011 m -40.24912,36.791904 14.42861,3.306937 0.34396,0.07867 7.65069,1.753659 -0.0395,0.171802 c -0.76482,3.338335 -1.24989,6.708775 -1.45415,10.096145 -0.007,0.117475 -0.0138,0.23495 -0.0201,0.352425 -0.26494,4.856692 0.0462,9.746192 0.93521,14.623346 0.12524,0.688269 0.26318,1.380067 0.40958,2.056342 l 0.037,0.172154 -0.89429,0.194029 -0.68968,0.149225 -20.89926,4.526138 -0.0374,-0.172508 c -0.20108,-0.928159 -0.38911,-1.871486 -0.55844,-2.803171 -1.84291,-10.112024 -1.86796,-20.275905 -0.0797,-30.273625 0.10301,0.09984 0.20461,0.198614 0.3055,0.296685 -1.73884,9.880952 -1.69968,19.922066 0.12136,29.91344 0.15804,0.870653 0.33267,1.751187 0.51893,2.619375 l 20.55425,-4.450999 0.68968,-0.149225 0.54998,-0.119239 c -0.13335,-0.625121 -0.25929,-1.261534 -0.37465,-1.895121 -0.89394,-4.905375 -1.20685,-9.822746 -0.94051,-14.706954 0.006,-0.117121 0.0131,-0.23495 0.0201,-0.352425 0.20214,-3.348919 0.67663,-6.681256 1.42346,-9.982904 l -7.30603,-1.674283 -0.34395,-0.07902 -14.08571,-3.228268 c -0.27799,1.22555 -0.52882,2.454627 -0.75178,3.685468 -0.10124,-0.09807 -0.20284,-0.197201 -0.30444,-0.295978 0.22366,-1.21638 0.47413,-2.42923 0.75177,-3.639963 l 0.0395,-0.172154"
       style="fill:#6e92c1;fill-opacity:1;fill-rule:nonzero;stroke:none;stroke-width:0.0352777"
       id="path11534" />
  </g>
</svg>
